<?xml version="1.0" encoding="UTF-8"?>
<svg width="512" height="512" viewBox="0 0 32 37" fill="none" xmlns="http://www.w3.org/2000/svg">
  <!-- XEarthLayer Logo - Dark Theme (Catppuccin Mocha) - Uncropped -->
  <!-- Three stacked isometric tile layers: DSF, TER, Ortho -->

  <!-- DSF (bottom layer) -->
  <g transform="translate(2, 18)">
    <polygon points="0,7 14,0 28,7 14,14" fill="#313244"/>
    <polygon points="0,7 0,10 14,17 14,14" fill="#1e1e2e"/>
    <polygon points="14,14 14,17 28,10 28,7" fill="#181825"/>
  </g>

  <!-- TER (middle layer) -->
  <g transform="translate(2, 12)">
    <polygon points="0,7 14,0 28,7 14,14" fill="#45475a"/>
    <polygon points="0,7 0,10 14,17 14,14" fill="#313244"/>
    <polygon points="14,14 14,17 28,10 28,7" fill="#313244"/>
  </g>

  <!-- Ortho (top layer) with green grass and brown earth -->
  <g transform="translate(2, 6)">
    <polygon points="0,7 14,0 28,7 14,14" fill="#a6e3a1"/>
    <polygon points="0,7 0,10 14,17 14,14" fill="#7c5c3e"/>
    <polygon points="14,14 14,17 28,10 28,7" fill="#5c4030"/>
  </g>
</svg>
